<?xml version="1.0" standalone="no"?>
<!DOCTYPE svg PUBLIC "-//W3C//DTD SVG 20010904//EN"
 "http://www.w3.org/TR/2001/REC-SVG-20010904/DTD/svg10.dtd">
<svg version="1.0" xmlns="http://www.w3.org/2000/svg"
 width="3783.000000pt" height="1312.000000pt" viewBox="0 0 3783.000000 1312.000000"
 preserveAspectRatio="xMidYMid meet">

<g transform="translate(0.000000,1312.000000) scale(0.100000,-0.100000)"
fill="#000000" stroke="none">
<path d="M18697 11783 c-255 -423 -435 -1115 -509 -1953 -18 -197 -18 -1044 0
-1240 43 -483 113 -886 218 -1249 46 -158 141 -421 153 -421 3 0 44 916 91
2035 47 1119 87 2035 90 2035 3 0 43 -916 90 -2035 47 -1119 88 -2035 91
-2035 12 0 107 263 153 421 105 363 175 766 218 1249 18 196 18 1043 0 1240
-56 633 -167 1164 -329 1575 -79 199 -200 435 -223 435 -5 0 -24 -26 -43 -57z"/>
<path d="M15190 8244 c-332 -37 -557 -97 -763 -201 l-92 -46 80 -38 c44 -21
208 -95 365 -165 997 -446 1605 -834 2154 -1373 486 -479 878 -1034 1278
-1809 61 -117 112 -211 114 -209 7 7 -15 194 -42 347 -157 914 -648 1766
-1358 2353 -381 316 -839 567 -1325 727 -146 48 -126 50 46 5 485 -128 940
-338 1333 -616 859 -606 1478 -1581 1670 -2629 27 -152 30 -163 36 -158 8 9
44 271 44 326 0 28 5 52 10 52 6 0 10 -24 10 -52 0 -55 36 -317 44 -326 6 -5
9 6 36 158 177 966 724 1884 1485 2491 443 352 995 624 1552 764 152 38 145
30 -27 -29 -205 -70 -285 -103 -469 -192 -201 -97 -303 -155 -491 -280 -726
-481 -1268 -1197 -1545 -2039 -64 -192 -106 -360 -139 -555 -27 -153 -49 -340
-42 -347 2 -2 53 92 114 209 592 1148 1214 1882 2092 2468 374 249 744 446
1340 713 157 70 321 145 365 166 l80 38 -92 46 c-167 84 -400 153 -638 189
-58 8 -181 13 -345 12 -294 0 -433 -17 -707 -85 -1348 -330 -2401 -1483 -2593
-2839 -11 -74 -20 -159 -20 -187 0 -88 -17 -60 -23 40 -25 357 -154 800 -341
1169 -511 1008 -1478 1714 -2571 1878 -133 20 -527 35 -625 24z m287 -370 c-3
-3 -12 -4 -19 -1 -8 3 -5 6 6 6 11 1 17 -2 13 -5z m6550 0 c-3 -3 -12 -4 -19
-1 -8 3 -5 6 6 6 11 1 17 -2 13 -5z"/>
<path d="M3095 6949 c-797 -87 -1441 -582 -1690 -1299 -90 -259 -120 -466
-112 -774 5 -225 18 -324 67 -517 92 -365 283 -720 529 -981 379 -404 925
-680 1556 -787 429 -73 959 -80 1545 -20 650 65 2062 315 3186 563 1495 330
2754 679 4384 1218 618 204 984 317 1286 397 997 266 1792 324 2552 186 519
-95 1016 -314 1392 -612 117 -93 342 -319 430 -431 265 -339 449 -757 494
-1122 5 -44 5 -44 -10 10 -77 280 -198 512 -377 726 -337 402 -854 669 -1487
769 -141 22 -523 31 -661 16 -409 -47 -732 -192 -979 -440 -518 -520 -521
-1314 -9 -1807 109 -104 192 -163 320 -223 225 -108 461 -134 709 -81 392 84
692 363 786 730 27 105 27 364 0 465 -61 234 -214 391 -392 403 -58 4 -77 1
-111 -17 -85 -43 -113 -117 -113 -302 0 -111 3 -139 26 -206 60 -184 16 -356
-119 -463 -196 -156 -474 -171 -700 -38 -191 112 -340 327 -378 543 -18 107
-7 291 26 400 134 452 536 734 1133 796 146 15 501 6 642 -16 733 -115 1278
-481 1555 -1046 87 -176 155 -422 155 -555 0 -24 5 -44 10 -44 6 0 10 20 10
44 0 133 68 379 155 555 277 565 822 931 1555 1046 141 22 496 31 642 16 597
-62 999 -344 1133 -796 33 -109 44 -293 26 -400 -47 -270 -260 -522 -511 -605
-139 -46 -319 -35 -453 29 -225 107 -309 303 -232 536 25 74 26 90 23 225 -4
175 -21 223 -97 272 -43 28 -51 29 -121 25 -96 -5 -163 -38 -246 -121 -68 -68
-120 -165 -150 -281 -27 -101 -27 -360 0 -465 94 -367 394 -646 786 -730 248
-53 484 -27 709 81 128 60 211 119 320 223 444 427 507 1078 155 1612 -80 122
-242 282 -370 367 -218 145 -474 233 -773 268 -138 15 -520 6 -661 -16 -362
-57 -699 -173 -964 -331 -466 -279 -762 -662 -900 -1164 -15 -54 -15 -54 -10
-10 45 365 229 783 494 1122 88 112 313 338 430 431 226 179 532 349 820 456
468 172 1038 251 1609 223 284 -14 438 -31 719 -78 544 -91 1015 -220 2082
-572 1266 -418 2185 -687 3305 -966 1232 -306 2719 -602 3825 -761 794 -113
1425 -125 1976 -35 435 70 846 229 1173 454 526 360 856 881 967 1526 25 148
30 486 10 648 -122 958 -840 1639 -1826 1733 -574 54 -1128 -142 -1505 -532
-197 -205 -327 -434 -409 -719 -97 -335 -96 -738 1 -1035 93 -285 280 -542
496 -683 128 -83 270 -128 376 -118 168 15 206 116 123 321 -22 55 -58 143
-80 195 -135 324 -201 630 -189 890 15 346 155 605 421 781 204 135 481 197
758 171 613 -58 1052 -441 1172 -1023 108 -527 -67 -1125 -438 -1492 -352
-348 -820 -548 -1457 -621 -569 -66 -1165 -31 -2384 140 -2088 293 -4088 732
-6195 1359 -1104 328 -1667 463 -2235 534 -929 116 -1743 23 -2430 -278 -617
-271 -1119 -739 -1401 -1306 -81 -165 -131 -294 -169 -443 -27 -108 -55 -260
-55 -303 0 -55 -17 -29 -24 37 -23 227 -111 502 -241 751 -284 547 -780 1001
-1380 1264 -687 301 -1501 394 -2430 278 -568 -71 -1131 -206 -2235 -534
-2107 -627 -4107 -1066 -6195 -1359 -1219 -171 -1815 -206 -2384 -140 -637 73
-1105 273 -1457 621 -371 367 -546 965 -438 1492 96 464 398 809 838 955 155
52 267 69 446 70 189 0 285 -15 438 -69 217 -78 409 -237 509 -425 73 -136
111 -280 119 -455 13 -263 -51 -568 -188 -895 -110 -263 -121 -294 -122 -357
-1 -48 4 -68 20 -90 83 -111 308 -90 521 49 216 141 403 398 496 683 117 355
94 822 -58 1209 -82 209 -193 382 -350 545 -263 272 -592 443 -985 512 -135
24 -418 33 -555 18z"/>
<path d="M13720 6899 c-570 -33 -1197 -189 -1919 -478 -243 -98 -522 -222
-1026 -458 -264 -124 -547 -256 -630 -293 -1001 -453 -1693 -632 -2440 -633
-266 -1 -399 9 -643 48 -84 14 -158 25 -164 25 -17 0 43 -60 147 -148 325
-274 776 -459 1296 -532 514 -73 1060 -34 1684 120 487 120 874 257 1775 630
162 67 385 158 495 202 739 296 1285 452 1795 514 200 25 583 25 775 0 501
-63 922 -221 1260 -471 41 -30 75 -52 75 -47 0 15 -157 187 -231 253 -392 351
-891 559 -1509 630 -156 18 -555 15 -735 -5 -539 -62 -1026 -192 -1753 -469
-95 -37 -383 -153 -640 -258 -257 -106 -558 -227 -669 -270 -675 -262 -1191
-405 -1691 -469 -192 -25 -269 -25 -104 0 631 96 1184 285 2217 760 776 356
1068 483 1395 605 460 171 881 281 1283 336 194 26 638 37 823 20 738 -70
1358 -350 1804 -818 l104 -108 -34 60 c-193 351 -537 675 -940 888 -408 216
-854 337 -1355 367 -188 11 -234 11 -445 -1z m-5007 -2136 c-13 -2 -33 -2 -45
0 -13 2 -3 4 22 4 25 0 35 -2 23 -4z"/>
<path d="M23290 6899 c-754 -45 -1449 -333 -1915 -794 -154 -152 -264 -295
-355 -460 l-34 -60 104 108 c446 468 1066 748 1804 818 185 17 629 6 823 -20
402 -55 823 -165 1283 -336 327 -122 619 -249 1395 -605 1033 -475 1586 -664
2217 -760 165 -25 88 -25 -104 0 -500 64 -1016 207 -1691 469 -111 43 -412
164 -669 270 -257 105 -545 221 -640 258 -727 277 -1214 407 -1753 469 -180
20 -579 23 -735 5 -618 -71 -1117 -279 -1509 -630 -74 -66 -231 -238 -231
-253 0 -5 34 17 75 47 338 250 759 408 1260 471 192 25 575 25 775 0 510 -62
1056 -218 1795 -514 110 -44 333 -135 495 -202 901 -373 1288 -510 1775 -630
625 -154 1169 -193 1685 -120 519 73 970 259 1295 532 104 88 164 148 147 148
-6 0 -80 -11 -164 -25 -244 -39 -377 -49 -643 -48 -747 1 -1439 180 -2440 633
-82 37 -366 169 -630 293 -504 236 -783 360 -1026 458 -739 296 -1343 444
-1949 479 -203 11 -240 11 -440 -1z m5523 -2136 c-13 -2 -33 -2 -45 0 -13 2
-3 4 22 4 25 0 35 -2 23 -4z"/>
</g>
</svg>
