<?xml version="1.0" standalone="no"?>
<!DOCTYPE svg PUBLIC "-//W3C//DTD SVG 20010904//EN"
 "http://www.w3.org/TR/2001/REC-SVG-20010904/DTD/svg10.dtd">
<svg version="1.0" xmlns="http://www.w3.org/2000/svg"
 width="1210.000000pt" height="325.000000pt" viewBox="0 0 1210.000000 325.000000"
 preserveAspectRatio="xMidYMid meet">

<g transform="translate(0.000000,325.000000) scale(0.100000,-0.100000)"
fill="#000000" stroke="none">
<path d="M5915 2831 c-50 -22 -95 -102 -95 -168 0 -47 29 -110 64 -143 22 -19
38 -25 76 -25 57 0 91 26 121 90 34 74 16 169 -44 223 -27 26 -90 37 -122 23z"/>
<path d="M5726 2638 c-25 -145 -18 -204 58 -449 29 -97 57 -191 61 -210 6 -31
3 -29 -26 21 -159 274 -384 345 -554 175 -67 -66 -90 -125 -90 -225 0 -96 25
-165 85 -234 60 -68 160 -100 196 -64 15 15 15 22 -2 85 -17 67 -17 70 2 108
36 74 112 103 187 71 18 -7 54 -37 79 -65 198 -220 118 -534 -154 -607 -78
-20 -203 -18 -280 6 -131 40 -258 147 -312 260 -25 53 -31 81 -35 150 -6 149
37 269 151 421 104 139 133 231 104 331 -19 66 -73 124 -128 139 -126 33 -229
-123 -143 -215 34 -37 67 -32 80 12 13 45 49 43 74 -5 30 -58 1 -121 -112
-242 -151 -162 -202 -281 -201 -466 0 -98 4 -120 33 -200 42 -116 42 -116 6
-127 -106 -30 -308 -25 -442 12 -169 46 -298 149 -366 292 -71 146 -73 256 -9
381 60 115 144 167 270 167 176 0 305 -132 247 -254 -30 -63 -117 -86 -169
-45 -33 26 -29 61 10 91 29 24 30 32 4 58 -43 43 -127 16 -161 -52 -82 -161
124 -328 303 -246 140 65 207 213 164 362 -22 75 -50 119 -115 179 -222 207
-588 123 -727 -166 -41 -85 -68 -232 -62 -327 5 -70 42 -166 90 -232 14 -20
17 -29 7 -25 -7 3 -104 46 -214 95 -277 123 -290 127 -415 127 -93 0 -112 -3
-162 -27 -142 -66 -238 -220 -238 -380 l0 -49 -70 70 c-162 163 -346 246 -571
258 -246 13 -543 -80 -856 -269 -151 -91 -317 -157 -454 -182 l-35 -6 -12 73
c-24 141 -102 221 -227 234 -114 12 -232 -52 -282 -154 -24 -50 -28 -70 -28
-143 0 -74 4 -93 32 -151 40 -86 88 -138 165 -180 l63 -34 5450 0 5450 0 63
34 c76 41 124 94 166 181 27 57 31 76 31 150 0 73 -4 93 -28 143 -84 171 -331
210 -446 70 -36 -44 -63 -119 -65 -181 l-1 -44 -70 5 c-137 11 -322 80 -498
185 -590 356 -1078 360 -1427 11 l-70 -70 0 45 c0 165 -95 318 -238 384 -74
34 -190 41 -280 18 -63 -16 -236 -87 -416 -170 -54 -25 -100 -46 -103 -46 -2
0 5 13 17 29 46 65 83 162 88 231 6 95 -21 242 -62 327 -139 289 -505 373
-727 166 -65 -60 -93 -104 -115 -179 -43 -149 24 -297 164 -362 179 -82 385
85 303 246 -34 68 -118 95 -161 52 -26 -26 -25 -34 4 -58 39 -30 43 -65 10
-91 -52 -41 -139 -18 -169 45 -58 122 71 254 247 254 126 0 210 -52 270 -167
64 -125 62 -235 -9 -381 -44 -94 -143 -197 -230 -241 -160 -80 -412 -107 -581
-61 -35 9 -42 15 -36 28 53 126 68 190 68 297 1 185 -50 304 -201 466 -121
129 -147 195 -102 253 28 36 54 34 65 -6 13 -44 45 -49 79 -12 36 39 42 84 16
138 -90 185 -338 31 -292 -182 15 -69 47 -131 117 -222 184 -240 196 -503 30
-673 -61 -64 -156 -123 -234 -147 -77 -24 -202 -26 -280 -6 -271 73 -352 387
-154 607 25 28 61 58 79 65 75 32 151 3 187 -70 17 -35 18 -45 7 -90 -20 -84
-19 -99 9 -113 67 -32 176 41 232 155 29 60 33 76 33 152 0 70 -4 94 -24 135
-50 99 -149 171 -253 182 -125 12 -264 -89 -367 -267 -29 -50 -32 -52 -26 -21
4 19 31 112 61 208 66 215 78 278 69 367 -10 102 -15 106 -40 28 -95 -299
-323 -273 -405 46 -6 23 -12 42 -14 42 -2 0 -6 -15 -10 -32z m-2308 -1087 c46
-17 146 -64 221 -105 448 -245 808 -345 1039 -291 35 8 97 30 137 49 l74 34
69 -68 c227 -222 611 -239 918 -39 33 21 69 39 79 39 10 0 46 -18 79 -39 308
-201 691 -183 919 41 l71 69 78 -36 c158 -72 291 -83 487 -39 206 46 418 132
683 275 206 112 290 142 398 143 61 1 93 -4 115 -16 69 -37 121 -113 131 -190
8 -61 -27 -124 -86 -155 -46 -24 -99 -30 -130 -13 -17 9 -18 12 -3 50 23 57 6
111 -45 145 -76 52 -157 20 -181 -72 -20 -74 18 -173 95 -248 122 -119 275
-125 418 -15 407 312 814 410 1241 300 123 -32 196 -59 425 -160 264 -116 387
-139 502 -95 11 4 18 0 23 -15 4 -12 20 -37 37 -56 46 -52 111 -45 143 16 24
47 19 84 -21 135 -39 52 -37 62 20 89 48 23 117 21 149 -4 41 -32 61 -98 55
-181 -8 -105 -47 -147 -159 -170 -75 -15 -10731 -14 -10808 1 -111 21 -151 64
-159 169 -6 83 14 149 55 181 32 25 101 27 149 4 57 -27 59 -37 20 -89 -40
-51 -45 -88 -21 -135 18 -35 43 -50 83 -50 30 0 76 37 87 69 4 15 18 18 78 18
97 0 193 28 384 112 232 102 305 129 428 161 427 110 834 12 1241 -300 143
-110 296 -104 418 15 77 75 115 174 95 248 -24 92 -105 124 -181 72 -51 -34
-68 -88 -45 -145 15 -38 14 -41 -3 -50 -75 -40 -197 31 -216 127 -17 87 66
212 162 243 51 17 163 4 252 -29z"/>
<path d="M3624 1316 c-39 -17 -74 -62 -74 -93 0 -37 29 -72 70 -84 36 -11 45
-9 115 25 105 49 157 46 218 -12 32 -30 34 -25 8 26 -27 51 -77 97 -135 123
-62 27 -160 35 -202 15z"/>
<path d="M8135 1316 c-84 -27 -145 -75 -179 -143 -23 -45 -20 -51 12 -21 60
58 112 61 217 12 70 -34 79 -36 115 -25 67 20 89 84 48 136 -41 52 -126 69
-213 41z"/>
<path d="M1745 1280 c-44 -5 -125 -19 -180 -30 -101 -22 -319 -89 -312 -97 3
-2 58 10 123 26 255 64 442 83 674 70 204 -12 369 -39 599 -99 63 -17 116 -28
118 -26 6 6 -163 65 -262 92 -226 60 -551 87 -760 64z"/>
<path d="M9795 1283 c-92 -8 -257 -37 -360 -63 -111 -28 -289 -89 -282 -96 2
-2 55 9 118 26 230 60 395 87 599 99 232 13 419 -6 674 -70 65 -16 120 -28
123 -26 7 8 -209 75 -307 96 -166 35 -394 49 -565 34z"/>
<path d="M4570 2452 c-57 -57 -36 -114 67 -182 85 -56 106 -93 99 -170 l-5
-55 20 25 c98 127 28 389 -109 407 -36 5 -45 2 -72 -25z"/>
<path d="M7250 2473 c-56 -20 -117 -122 -126 -211 -7 -66 13 -150 45 -192 l20
-25 -5 55 c-7 77 14 114 99 170 38 25 75 56 83 70 43 78 -31 164 -116 133z"/>
<path d="M4067 1826 c-25 -172 29 -312 149 -382 103 -61 254 -84 439 -68 l100
8 -135 7 c-278 14 -427 84 -501 234 -25 51 -32 81 -38 157 -6 88 -7 90 -14 44z"/>
<path d="M7838 1782 c-15 -252 -179 -372 -533 -391 l-130 -7 90 -8 c238 -23
426 26 519 136 63 73 90 204 67 323 -6 34 -8 27 -13 -53z"/>
<path d="M5530 1792 c-57 -57 -36 -114 67 -182 85 -56 106 -93 99 -170 l-5
-55 20 25 c98 127 28 389 -109 407 -36 5 -45 2 -72 -25z"/>
<path d="M6270 1813 c-56 -20 -117 -122 -126 -211 -7 -66 13 -150 45 -192 l20
-25 -5 55 c-7 77 14 114 99 170 38 25 75 56 83 70 43 78 -31 164 -116 133z"/>
<path d="M4778 1393 c7 -3 16 -2 19 1 4 3 -2 6 -13 5 -11 0 -14 -3 -6 -6z"/>
<path d="M7128 1393 c7 -3 16 -2 19 1 4 3 -2 6 -13 5 -11 0 -14 -3 -6 -6z"/>
<path d="M534 709 c-3 -6 -2 -15 3 -20 5 -5 2178 -8 5459 -7 4836 3 5449 5
5449 18 0 13 -614 15 -5452 18 -3920 1 -5454 -1 -5459 -9z"/>
</g>
</svg>
